<svg width="156" height="19" viewBox="0 0 156 19" fill="none" xmlns="http://www.w3.org/2000/svg">
<path d="M9.992 9.264C11.016 9.472 11.832 9.96 12.44 10.728C13.064 11.48 13.376 12.368 13.376 13.392C13.376 14.816 12.896 15.944 11.936 16.776C10.992 17.592 9.616 18 7.808 18H0.536V1.056H7.664C9.376 1.056 10.688 1.432 11.6 2.184C12.528 2.936 12.992 3.992 12.992 5.352C12.992 6.408 12.712 7.272 12.152 7.944C11.608 8.616 10.888 9.056 9.992 9.264ZM3.92 8.16H6.968C7.816 8.16 8.456 7.976 8.888 7.608C9.336 7.224 9.56 6.68 9.56 5.976C9.56 5.272 9.344 4.728 8.912 4.344C8.48 3.96 7.816 3.768 6.92 3.768H3.92V8.16ZM7.136 15.24C8.032 15.24 8.72 15.048 9.2 14.664C9.68 14.264 9.92 13.688 9.92 12.936C9.92 12.184 9.672 11.608 9.176 11.208C8.696 10.792 8.008 10.584 7.112 10.584H3.92V15.24H7.136ZM22.3909 4.536C23.6869 4.536 24.8469 4.808 25.8709 5.352C26.9109 5.896 27.7269 6.688 28.3189 7.728C28.9109 8.752 29.2069 9.96 29.2069 11.352C29.2069 12.744 28.9109 13.952 28.3189 14.976C27.7269 16 26.9109 16.792 25.8709 17.352C24.8469 17.896 23.6869 18.168 22.3909 18.168C21.0949 18.168 19.9269 17.896 18.8869 17.352C17.8629 16.792 17.0549 16 16.4629 14.976C15.8709 13.952 15.5749 12.744 15.5749 11.352C15.5749 9.96 15.8709 8.752 16.4629 7.728C17.0549 6.688 17.8629 5.896 18.8869 5.352C19.9269 4.808 21.0949 4.536 22.3909 4.536ZM22.3909 7.464C21.4469 7.464 20.6469 7.8 19.9909 8.472C19.3349 9.128 19.0069 10.088 19.0069 11.352C19.0069 12.616 19.3349 13.584 19.9909 14.256C20.6469 14.912 21.4469 15.24 22.3909 15.24C23.3349 15.24 24.1349 14.912 24.7909 14.256C25.4469 13.584 25.7749 12.616 25.7749 11.352C25.7749 10.088 25.4469 9.128 24.7909 8.472C24.1349 7.8 23.3349 7.464 22.3909 7.464ZM38.2425 4.536C39.5385 4.536 40.6985 4.808 41.7225 5.352C42.7625 5.896 43.5785 6.688 44.1705 7.728C44.7625 8.752 45.0585 9.96 45.0585 11.352C45.0585 12.744 44.7625 13.952 44.1705 14.976C43.5785 16 42.7625 16.792 41.7225 17.352C40.6985 17.896 39.5385 18.168 38.2425 18.168C36.9465 18.168 35.7785 17.896 34.7385 17.352C33.7145 16.792 32.9065 16 32.3145 14.976C31.7225 13.952 31.4265 12.744 31.4265 11.352C31.4265 9.96 31.7225 8.752 32.3145 7.728C32.9065 6.688 33.7145 5.896 34.7385 5.352C35.7785 4.808 36.9465 4.536 38.2425 4.536ZM38.2425 7.464C37.2985 7.464 36.4985 7.8 35.8425 8.472C35.1865 9.128 34.8585 10.088 34.8585 11.352C34.8585 12.616 35.1865 13.584 35.8425 14.256C36.4985 14.912 37.2985 15.24 38.2425 15.24C39.1865 15.24 39.9865 14.912 40.6425 14.256C41.2985 13.584 41.6265 12.616 41.6265 11.352C41.6265 10.088 41.2985 9.128 40.6425 8.472C39.9865 7.8 39.1865 7.464 38.2425 7.464ZM55.7261 18L51.3341 12.192V18H47.9501V0.24H51.3341V10.224L55.7021 4.704H59.7101L54.1181 11.328L59.8541 18H55.7261Z" fill="black"/>
<path d="M66.5809 4.536C68.1969 4.536 69.4929 4.944 70.4689 5.76C71.4449 6.576 72.0529 7.664 72.2929 9.024H69.1249C68.9969 8.384 68.7089 7.872 68.2609 7.488C67.8129 7.104 67.2289 6.912 66.5089 6.912C65.9329 6.912 65.4849 7.048 65.1649 7.32C64.8449 7.592 64.6849 7.96 64.6849 8.424C64.6849 8.792 64.8129 9.088 65.0689 9.312C65.3249 9.536 65.6449 9.712 66.0289 9.84C66.4129 9.968 66.9649 10.12 67.6849 10.296C68.6929 10.52 69.5089 10.76 70.1329 11.016C70.7729 11.256 71.3169 11.648 71.7649 12.192C72.2289 12.72 72.4609 13.44 72.4609 14.352C72.4609 15.488 72.0129 16.408 71.1169 17.112C70.2369 17.816 69.0449 18.168 67.5409 18.168C65.8129 18.168 64.4289 17.784 63.3889 17.016C62.3489 16.232 61.7169 15.12 61.4929 13.68H64.7329C64.8129 14.336 65.1009 14.856 65.5969 15.24C66.0929 15.608 66.7409 15.792 67.5409 15.792C68.1169 15.792 68.5569 15.656 68.8609 15.384C69.1649 15.096 69.3169 14.728 69.3169 14.28C69.3169 13.896 69.1809 13.584 68.9089 13.344C68.6529 13.104 68.3249 12.92 67.9249 12.792C67.5409 12.664 66.9889 12.512 66.2689 12.336C65.2769 12.112 64.4689 11.888 63.8449 11.664C63.2369 11.424 62.7089 11.048 62.2609 10.536C61.8289 10.024 61.6129 9.32 61.6129 8.424C61.6129 7.272 62.0529 6.336 62.9329 5.616C63.8129 4.896 65.0289 4.536 66.5809 4.536ZM83.4013 4.512C84.9373 4.512 86.1613 5.016 87.0733 6.024C87.9853 7.032 88.4413 8.448 88.4413 10.272V18H85.0813V10.656C85.0813 9.6 84.8093 8.784 84.2653 8.208C83.7213 7.616 82.9773 7.32 82.0333 7.32C81.0733 7.32 80.3053 7.632 79.7293 8.256C79.1533 8.88 78.8653 9.776 78.8653 10.944V18H75.4813V0.24H78.8653V7.368C79.2173 6.472 79.7933 5.776 80.5933 5.28C81.4093 4.768 82.3453 4.512 83.4013 4.512ZM104.423 10.848C104.423 11.184 104.383 11.568 104.303 12H94.5588C94.6068 13.184 94.9268 14.056 95.5188 14.616C96.1108 15.176 96.8468 15.456 97.7268 15.456C98.5108 15.456 99.1588 15.264 99.6708 14.88C100.199 14.496 100.535 13.976 100.679 13.32H104.255C104.079 14.248 103.703 15.08 103.127 15.816C102.551 16.552 101.807 17.128 100.895 17.544C99.9988 17.96 98.9988 18.168 97.8948 18.168C96.5988 18.168 95.4468 17.896 94.4388 17.352C93.4308 16.792 92.6468 16 92.0868 14.976C91.5268 13.952 91.2468 12.744 91.2468 11.352C91.2468 9.96 91.5268 8.752 92.0868 7.728C92.6468 6.688 93.4308 5.896 94.4388 5.352C95.4468 4.808 96.5988 4.536 97.8948 4.536C99.2068 4.536 100.351 4.808 101.327 5.352C102.319 5.896 103.079 6.648 103.607 7.608C104.151 8.552 104.423 9.632 104.423 10.848ZM101.015 10.512C101.063 9.424 100.775 8.6 100.151 8.04C99.5428 7.48 98.7908 7.2 97.8948 7.2C96.9828 7.2 96.2148 7.48 95.5908 8.04C94.9668 8.6 94.6228 9.424 94.5588 10.512H101.015ZM110.709 0.24V18H107.325V0.24H110.709ZM120.054 14.616L123.414 4.704H127.014L122.094 18H117.966L113.046 4.704H116.67L120.054 14.616ZM141.899 10.848C141.899 11.184 141.859 11.568 141.779 12H132.035C132.083 13.184 132.403 14.056 132.995 14.616C133.587 15.176 134.323 15.456 135.203 15.456C135.987 15.456 136.635 15.264 137.147 14.88C137.675 14.496 138.011 13.976 138.155 13.32H141.731C141.555 14.248 141.179 15.08 140.603 15.816C140.027 16.552 139.283 17.128 138.371 17.544C137.475 17.96 136.475 18.168 135.371 18.168C134.075 18.168 132.923 17.896 131.915 17.352C130.907 16.792 130.123 16 129.563 14.976C129.003 13.952 128.723 12.744 128.723 11.352C128.723 9.96 129.003 8.752 129.563 7.728C130.123 6.688 130.907 5.896 131.915 5.352C132.923 4.808 134.075 4.536 135.371 4.536C136.683 4.536 137.827 4.808 138.803 5.352C139.795 5.896 140.555 6.648 141.083 7.608C141.627 8.552 141.899 9.632 141.899 10.848ZM138.491 10.512C138.539 9.424 138.251 8.6 137.627 8.04C137.019 7.48 136.267 7.2 135.371 7.2C134.459 7.2 133.691 7.48 133.067 8.04C132.443 8.6 132.099 9.424 132.035 10.512H138.491ZM149.386 4.536C151.002 4.536 152.298 4.944 153.274 5.76C154.25 6.576 154.858 7.664 155.098 9.024H151.93C151.802 8.384 151.514 7.872 151.066 7.488C150.618 7.104 150.034 6.912 149.314 6.912C148.738 6.912 148.29 7.048 147.97 7.32C147.65 7.592 147.49 7.96 147.49 8.424C147.49 8.792 147.618 9.088 147.874 9.312C148.13 9.536 148.45 9.712 148.834 9.84C149.218 9.968 149.77 10.12 150.49 10.296C151.498 10.52 152.314 10.76 152.938 11.016C153.578 11.256 154.122 11.648 154.57 12.192C155.034 12.72 155.266 13.44 155.266 14.352C155.266 15.488 154.818 16.408 153.922 17.112C153.042 17.816 151.85 18.168 150.346 18.168C148.618 18.168 147.234 17.784 146.194 17.016C145.154 16.232 144.522 15.12 144.298 13.68H147.538C147.618 14.336 147.906 14.856 148.402 15.24C148.898 15.608 149.546 15.792 150.346 15.792C150.922 15.792 151.362 15.656 151.666 15.384C151.97 15.096 152.122 14.728 152.122 14.28C152.122 13.896 151.986 13.584 151.714 13.344C151.458 13.104 151.13 12.92 150.73 12.792C150.346 12.664 149.794 12.512 149.074 12.336C148.082 12.112 147.274 11.888 146.65 11.664C146.042 11.424 145.514 11.048 145.066 10.536C144.634 10.024 144.418 9.32 144.418 8.424C144.418 7.272 144.858 6.336 145.738 5.616C146.618 4.896 147.834 4.536 149.386 4.536Z" fill="#0275D8"/>
</svg>
